# xmcd
#
# Track frame offsets:
#	150
#	13806
#	26532
#	40217
#	53283
#	66516
#	80506
#	93513
#	107831
#	121297
#	134285
#	146704
#	161157
#	174683
#	187168
#	199956
#	213958
#	229386
#	244429
#	258640
#	270800
#	285741
#
# Disc length: 3973 seconds
#
# Revision: 3
# Processed by: cddbd v1.5.1PL0 Copyright (c) Steve Scherf et al.
# Submitted via: dBpowerAMP V4.0
#
DISCID=4f0f8316
DTITLE=Blind Willie McTell - complete recorded works vol 3 1933-35 document records
DYEAR=2003
DGENRE=Blues
TTITLE0=B And O Blues No. 2
TTITLE1=B And O Blues No. 2
TTITLE2=Weary Hearted Blues
TTITLE3=Bell Street Lightnin'
TTITLE4=Southern Can Mama
TTITLE5=Runnin' Me Crazy
TTITLE6=East St. Louis Blues (Fare You Well)
TTITLE7=Ain't It Grand To Be A Christian
TTITLE8=We Got To Meet Death One Day
TTITLE9=We Got To Meet Death One Day
TTITLE10=Don't Let Nobody Turn You Around
TTITLE11=I Got Religion, I'm So Glad
TTITLE12=Dying Gambler
TTITLE13=God Don't Like It
TTITLE14=Bell Street Blues
TTITLE15=Let Me Play With Yo' Yo-Yo
TTITLE16=Lay Some Flowers On My Grave
TTITLE17=Ticket Agent Blues
TTITLE18=Cold Winter Day
TTITLE19=Your Time To Worry
TTITLE20=Cooling Board Blues
TTITLE21=Hillbilly Willie's Blues
EXTD=
EXTT0=
EXTT1=
EXTT2=
EXTT3=
EXTT4=
EXTT5=
EXTT6=
EXTT7=
EXTT8=
EXTT9=
EXTT10=
EXTT11=
EXTT12=
EXTT13=
EXTT14=
EXTT15=
EXTT16=
EXTT17=
EXTT18=
EXTT19=
EXTT20=
EXTT21=
PLAYORDER=
